<svg id="Layer_1" data-name="Layer 1" xmlns="http://www.w3.org/2000/svg" viewBox="0 0 4159.65 1644.3"><defs><style>.cls-1,.cls-2{fill:none;stroke-miterlimit:10;stroke-width:60px;}.cls-1{stroke:#f36;}.cls-2{stroke:#000;}</style></defs><title>Artboard 6</title><line class="cls-1" y1="337.54" x2="1104.35" y2="337.54"/><polyline class="cls-1" points="111.83 435.39 549.84 435.39 549.84 1614.3"/><polyline class="cls-2" points="1323.35 1614.3 866.7 1614.3 1453.82 337.54 2008.33 1614.3 1849.9 1614.3"/><polyline class="cls-2" points="2269.27 337.54 2269.27 1614.3 2809.8 1614.3"/><polyline class="cls-2" points="2418.38 836.13 2418.38 1003.88 2562.83 1003.88"/><polyline class="cls-2" points="2805.14 356.18 2418.38 356.18 2418.38 514.61"/><polyline class="cls-1" points="3103.36 337.54 3103.36 1013.2 3753.38 363.17"/><polyline class="cls-1" points="3429.53 915.34 3070.74 1274.14 3070.74 1614.3"/><line class="cls-1" x1="3401.58" y1="1143.67" x2="3751.05" y2="1614.3"/><polyline class="cls-1" points="4099.36 337.54 3950.26 337.54 3950.26 1614.3 4099.36 1614.3 4099.36 1376.65"/><circle class="cls-1" cx="4024.81" cy="134.84" r="104.84"/></svg>